:SAMPLES-PER-SECOND 30
:FULLY-SPECIFIED
:DEGREES
630
root  81.8135 39.3562 5.27031 17.3176 84.6011 15.8796
RightUpLeg  -6.00039 -5.98337 -1.85618
RightLeg  7.77269 8.37274 0.176559
RightFoot  -2.63163 0.0872345 -1.3498
RightToes  -6.40286e-010 0 -3.6325e-017
Spine  0.514856 1.9656 5.80798
Spine1  6.79461 2.94094 -3.83936
HEad  -18.9302 4.29916 -6.21222
LeftShoulder1  -0.458234 4.79226 -29.4262
LeftArm  -11.2562 0.247107 -27.593
LeftForeArm  28.9895 -4.82763 -4.88784
LeftHand  -0.0865207 7.24608 -2.66603
RightShoulder  -0.653839 -5.62283 24.1184
RightArm  0.694317 -6.24942 32.7694
RightForeArm  24.2093 25.0729 4.08413
RightHand  -0.056873 6.2322 -0.890442
LeftUpLeg  -4.07743 6.4384 3.49375
LeftLeg  4.30112 5.33534 0.614694
LeftFoot  -0.660443 0.224078 -2.35452
LeftToes  1.32783e-010 1.73515e-011 1.59258e-011
631
root  81.8609 39.3582 5.23524 13.1449 84.0173 12.1017
RightUpLeg  -5.5091 -5.78537 -1.63395
RightLeg  7.67026 8.76062 0.0851264
RightFoot  -2.59459 0.0791376 -1.23941
RightToes  -6.40286e-010 0 -3.6325e-017
Spine  0.590637 1.95481 5.05469
Spine1  7.00811 2.75868 -3.01975
HEad  -18.8429 5.05832 -6.42861
LeftShoulder1  -0.486548 4.91178 -28.3657
LeftArm  -16.3637 -0.7522 -25.1593
LeftForeArm  27.0936 -0.243107 -1.31508
LeftHand  -0.0991001 7.24375 -3.25266
RightShoulder  -0.559074 -5.39962 22.7116
RightArm  2.80452 -3.12456 28.2849
RightForeArm  16.642 22.2194 3.85613
RightHand  -0.190375 7.46683 -2.07584
LeftUpLeg  -3.55982 6.81326 3.82419
LeftLeg  4.57876 5.4721 0.519052
LeftFoot  -0.794246 0.187697 -1.98424
LeftToes  1.32783e-010 1.73515e-011 1.59258e-011
632
root  81.9284 39.3618 5.16162 10.9977 83.5621 9.94916
RightUpLeg  -5.36572 -5.74806 -1.60023
RightLeg  7.45069 9.19329 0.108367
RightFoot  -2.55014 0.0818245 -1.29161
RightToes  -6.40286e-010 0 -3.6325e-017
Spine  0.0525801 2.14623 4.61669
Spine1  7.50159 2.80375 -2.41214
HEad  -18.86 5.17809 -6.63769
LeftShoulder1  -0.478539 4.93738 -27.1817
LeftArm  -16.2432 0.253145 -21.2767
LeftForeArm  22.3339 -0.582257 -1.34966
LeftHand  -0.0573121 6.64244 -1.82564
RightShoulder  -0.524175 -5.35739 21.4132
RightArm  1.80792 -0.680302 23.6592
RightForeArm  13.8758 19.7684 3.35553
RightHand  -0.210853 6.53394 -2.5078
LeftUpLeg  -3.46696 6.92076 3.88974
LeftLeg  4.75673 5.90899 0.546783
LeftFoot  -1.06092 0.192514 -2.07256
LeftToes  1.32783e-010 1.73515e-011 1.59258e-011
633
root  82.0128 39.3671 5.10539 10.9952 83.1818 9.74237
RightUpLeg  -5.42744 -5.73985 -1.69686
RightLeg  7.29336 9.52056 0.039717
RightFoot  -2.5611 0.0661336 -1.08637
RightToes  -6.40286e-010 0 -3.6325e-017
Spine  -0.935856 2.47347 4.27924
Spine1  8.30383 3.06435 -2.10575
HEad  -18.402 3.94339 -6.01131
LeftShoulder1  -0.467169 4.97591 -25.4369
LeftArm  -16.3674 0.65461 -17.7993
LeftForeArm  18.7485 -1.81949 -1.40984
LeftHand  -0.0759058 6.90552 -1.81718
RightShoulder  -0.444748 -5.18535 19.488
RightArm  0.786166 1.14557 19.8627
RightForeArm  12.3 16.1768 2.36261
RightHand  -0.00559203 1.49273 -2.14702
LeftUpLeg  -3.45596 6.85523 3.72448
LeftLeg  4.6871 6.34203 0.560254
LeftFoot  -0.844647 0.128591 -1.34272
LeftToes  1.32783e-010 1.73515e-011 1.59258e-011
634
root  82.0344 39.3538 5.1317 10.0435 83.475 8.86374
RightUpLeg  -5.27108 -5.28784 -1.30487
RightLeg  7.26622 8.81015 -0.462423
RightFoot  -2.69441 0.0272536 -0.602975
RightToes  -6.40286e-010 0 -3.6325e-017
Spine  -1.34954 2.84047 3.76945
Spine1  8.72669 3.24822 -1.20159
HEad  -17.8411 3.65574 -6.02634
LeftShoulder1  -0.422516 4.92581 -23.3824
LeftArm  -10.6456 -0.164167 -13.1833
LeftForeArm  7.70038 -1.57395 -4.89868
LeftHand  -0.0224445 5.76992 1.35557
RightShoulder  -0.373512 -5.05377 16.9547
RightArm  -3.53782 3.06549 15.6889
RightForeArm  16.228 18.6816 2.82694
RightHand  -0.738147 -6.02709 6.12361
LeftUpLeg  -3.65634 7.26149 4.07714
LeftLeg  5.28958 5.6539 0.28958
LeftFoot  -1.05303 0.101516 -1.05859
LeftToes  1.32783e-010 1.73515e-011 1.59258e-011
635
root  82.103 39.3486 5.0874 9.16556 83.6968 8.04388
RightUpLeg  -5.05598 -5.29391 -1.29649
RightLeg  7.23458 8.75849 -0.459308
RightFoot  -2.79515 0.0226697 -0.556566
RightToes  -6.40286e-010 0 -3.6325e-017
Spine  -1.85382 3.04472 3.96307
Spine1  9.12391 3.46657 -1.2761
HEad  -17.0598 2.85111 -5.66373
LeftShoulder1  -0.425934 5.01227 -21.7786
LeftArm  -12.3416 -0.19024 -10.0885
LeftForeArm  6.02967 -3.64736 -4.15304
LeftHand  -0.0573368 7.78476 -0.616144
RightShoulder  -0.29108 -4.83904 14.497
RightArm  -22.734 4.14129 12.1133
RightForeArm  43.9441 40.8147 6.71627
RightHand  -5.16033 -27.5042 26.3423
LeftUpLeg  -3.66993 7.28382 4.11141
LeftLeg  5.57869 5.43579 0.341778
LeftFoot  -1.20874 0.0858065 -0.877041
LeftToes  1.32783e-010 1.73515e-011 1.59258e-011
636
root  82.1729 39.348 5.05292 8.87442 84.2482 7.79416
RightUpLeg  -4.7469 -5.40936 -1.36027
RightLeg  7.0932 8.4034 -0.410923
RightFoot  -2.87939 0.0192435 -0.54388
RightToes  -6.40286e-010 0 -3.6325e-017
Spine  -2.40559 3.11221 4.72304
Spine1  9.50861 3.74594 -2.22697
HEad  -16.2619 1.94581 -4.97014
LeftShoulder1  -0.38318 4.94726 -20.0021
LeftArm  -12.952 -0.841778 -6.8232
LeftForeArm  4.85804 -4.9095 -4.15631
LeftHand  -0.10569 10.4125 -0.892125
RightShoulder  -0.238506 -4.71185 12.2656
RightArm  -26.485 2.68813 13.0752
RightForeArm  41.4794 46.7632 8.95085
RightHand  -8.13883 -34.0991 29.4018
LeftUpLeg  -3.75694 7.26246 4.12913
LeftLeg  5.84809 4.86122 0.36745
LeftFoot  -1.38461 0.0788963 -0.792875
LeftToes  1.32783e-010 1.73515e-011 1.59258e-011
637
root  82.2528 39.3496 5.00508 9.13556 84.8286 8.1048
RightUpLeg  -4.60024 -5.5504 -1.45189
RightLeg  7.29059 7.89617 -0.343272
RightFoot  -3.00294 0.032939 -0.800629
RightToes  -6.40286e-010 0 -3.6325e-017
Spine  -3.14106 2.97465 4.41273
Spine1  10.1978 3.48024 -1.75737
HEad  -15.8739 2.1533 -5.1485
LeftShoulder1  -0.350244 4.88831 -18.6594
LeftArm  -15.4488 -1.04408 -4.83126
LeftForeArm  2.1285 -5.41147 -2.89453
LeftHand  0.0148436 7.82551 2.45756
RightShoulder  -0.200238 -4.6398 9.96802
RightArm  -32.022 1.4106 13.7834
RightForeArm  41.6144 55.9506 13.1007
RightHand  -14.4176 -43.941 37.4735
LeftUpLeg  -3.73302 7.10498 4.04011
LeftLeg  5.9568 4.44601 0.451513
LeftFoot  -1.57809 0.0911087 -0.990371
LeftToes  1.32783e-010 1.73515e-011 1.59258e-011
